<?xml version="1.0" encoding="UTF-8" standalone="no"?>
<svg
   xmlns:dc="http://purl.org/dc/elements/1.1/"
   xmlns:cc="http://creativecommons.org/ns#"
   xmlns:rdf="http://www.w3.org/1999/02/22-rdf-syntax-ns#"
   xmlns:svg="http://www.w3.org/2000/svg"
   xmlns="http://www.w3.org/2000/svg"
   xmlns:sodipodi="http://sodipodi.sourceforge.net/DTD/sodipodi-0.dtd"
   xmlns:inkscape="http://www.inkscape.org/namespaces/inkscape"
   width="1369.9927"
   height="1113.0701"
   id="svg61264"
   version="1.1"
   inkscape:version="0.48.4 r9939"
   sodipodi:docname="Belgium_provinces.svg"
   inkscape:output_extension="org.inkscape.output.svg.inkscape">
  <metadata
     id="metadata39884">
    <rdf:RDF>
      <cc:Work
         rdf:about="">
        <dc:format>image/svg+xml</dc:format>
        <dc:type
           rdf:resource="http://purl.org/dc/dcmitype/StillImage" />
        <dc:title />
      </cc:Work>
    </rdf:RDF>
  </metadata>
  <defs
     id="defs39882" />
  <sodipodi:namedview
     pagecolor="#ffffff"
     bordercolor="#666666"
     borderopacity="1"
     objecttolerance="10"
     gridtolerance="10"
     guidetolerance="10"
     inkscape:pageopacity="0"
     inkscape:pageshadow="2"
     inkscape:window-width="1680"
     inkscape:window-height="995"
     id="namedview39880"
     showgrid="false"
     inkscape:zoom="0.62892331"
     inkscape:cx="804.16991"
     inkscape:cy="635.56792"
     inkscape:window-x="0"
     inkscape:window-y="30"
     inkscape:window-maximized="1"
     inkscape:current-layer="layer2"
     inkscape:snap-bbox="true"
     inkscape:object-nodes="true" />
  <g
     id="layer2"
     inkscape:groupmode="layer"
     inkscape:label="provinces"
     transform="translate(-108.75,-33.179932)"
     style="display:inline"
     sodipodi:insensitive="true">
    <path
       style="fill:none;stroke:#aa0000;stroke-width:2.5px;stroke-linecap:round;stroke-linejoin:round;stroke-opacity:1"
       d="m 600,460 0,-10 -5,0 5,-10 10,-5 5,5 25,-10 5,-25 -10,-5 20,-30 -10,-5 10,-5 -5,-10 20,5 5,-35 25,0 5,-10 -5,-5 5,-15 15,0 25,10 10,-10 5,25 20,-5 5,5 10,-10 10,10 5,-5 15,5 10,-10 25,-10 5,10 35,-15 5,15 10,0 10,-5 35,-15 5,5 10,0 5,10 5,0 5,5 10,-10 0,-15 15,0 10,15 -10,5 0,10 -15,5 -20,40 25,5 30,0 0,20 -10,-5 -5,40 5,5 -15,20 0,15 5,5 -5,10 -5,5 -5,-5 -10,-5 0,-10 -10,-5 0,10 -10,5 10,10 -10,35 -15,0 -15,10 -55,20 -5,-10 -10,10 -15,-10 -5,5 5,10 -20,10 -10,0 0,10 -25,10 -5,-10 -10,10 0,-20 -40,0 -5,10 -5,-5 0,-10 -10,0 -10,-10 -10,-5 0,-10 -15,-5 0,-10 -5,-10 -15,20 -15,-5 0,-35 5,-5 -15,-5 -5,10 -20,0 -25,5 -5,0 -10,-15 5,-10 15,0"
       id="path2711"
       inkscape:connector-curvature="0" />
    <path
       style="fill:none;stroke:#aa0000;stroke-width:2.5px;stroke-linecap:round;stroke-linejoin:round;stroke-opacity:1"
       d="m 965,980 5,-25 30,-25 -10,-5 30,-15 -5,-20 -20,-15 -10,5 -15,-30 5,0 0,-5 10,0 10,-20 5,-25 5,0 0,15 20,-5 25,0 25,-5 0,-5 -10,-10 10,-5 -10,-25 -15,-15 15,-5 0,-5 10,-10 5,5 35,-25 0,-15 -15,5 -5,-5 20,-15 -5,-5 5,-15 10,-15 -5,-5 -5,0 0,-10 10,0 5,5 5,0 5,5 15,-5 10,20 20,-5 20,15 10,5 20,0 -10,10 10,20 5,0 -5,15 -5,10 10,0 10,-5 10,0 0,10 5,-10 20,0 5,-10 -15,0 10,-20 -10,-5 5,-10 25,5 20,5 10,5 0,60 10,0 0,5 -5,10"
       id="path2713"
       inkscape:connector-curvature="0" />
    <path
       style="fill:none;stroke:#aa0000;stroke-width:2.5px;stroke-linecap:round;stroke-linejoin:round;stroke-opacity:1"
       d="m 825,565 0,15 -10,5 5,10 10,-10 5,15 -10,15 0,15 10,0 -5,15 -5,5 10,5 -10,10 0,10 5,0 0,10 -25,5 -5,-5 -15,0 -5,15 -20,0 -5,5 -5,0 -5,5 -25,15 5,10 15,10 10,-10 10,5 0,25 -15,5 15,30 -5,10 5,35 5,-5 0,20 10,35 0,10"
       id="path2715"
       inkscape:connector-curvature="0" />
    <path
       style="fill:none;stroke:#aa0000;stroke-width:2.5px;stroke-linecap:round;stroke-linejoin:round;stroke-opacity:1"
       d="m 970,510 0,15 10,15 10,20 5,0 -10,5 20,0 5,15 15,-5 -5,5 15,25 10,-5 15,30 -10,5 25,10 5,20 20,-15 5,5 0,-5 10,5"
       id="path2717"
       inkscape:connector-curvature="0" />
    <path
       style="fill:none;stroke:#aa0000;stroke-width:2.5px;stroke-linecap:round;stroke-linejoin:round;stroke-opacity:1"
       d="m 1010,470 15,10 5,0 5,-5 -5,-10 20,0 5,-5 5,5 5,5 5,-10 10,10 5,-10 10,-10 15,0 5,10 5,5 15,-5 0,-5 5,10 5,-5 15,-10 0,-5 30,-10 15,-20 10,0"
       id="path2719"
       inkscape:connector-curvature="0" />
    <path
       style="fill:none;stroke:#aa0000;stroke-width:2.5px;stroke-linecap:round;stroke-linejoin:round;stroke-opacity:1"
       d="m 330,445 15,-5 15,10 15,-5 10,15 -5,5 15,5 0,-10 10,0 10,-10 5,0 10,-10 10,5 15,-5 5,20 25,0 5,5 5,-10 10,-15 15,-5 0,5 15,-5 5,15 15,0 5,5 20,-5 5,10"
       id="path2721"
       inkscape:connector-curvature="0" />
    <path
       style="fill:none;stroke:#aa0000;stroke-width:2.5px;stroke-linecap:round;stroke-linejoin:round;stroke-opacity:1"
       d="m 1055,165 -10,5 0,20 15,15 0,25 -10,5 -5,-5 -5,15 -20,0 -15,20 -30,0 0,10 -10,15"
       id="path2723"
       inkscape:connector-curvature="0" />
    <path
       style="fill:none;stroke:#aa0000;stroke-width:2.5px;stroke-linecap:round;stroke-linejoin:round;stroke-opacity:1"
       d="m 705,115 10,5 0,15 5,15 10,5 -5,10 5,30 5,15 0,30 -15,5 -25,0 -15,10 0,5 5,5 0,10 5,5 -5,5 10,10 10,-10 0,5"
       id="path2725"
       inkscape:connector-curvature="0" />
    <path
       style="fill:none;stroke:#aa0000;stroke-width:2.5px;stroke-linecap:round;stroke-linejoin:round;stroke-opacity:1"
       d="m 405,150 0,15 5,10 -10,5 5,20 -5,0 0,5 10,0 5,15 -15,30 -15,5 10,5 5,5 25,15 -5,10 10,15 -10,15 5,10 -10,5 10,10 5,-5 0,5 -5,5 -5,0 0,5 -5,5 0,5 10,0 5,-5 5,10 -5,15 5,5 5,0 10,10 -5,5 10,15 -5,5 -20,15"
       id="path2727"
       inkscape:connector-curvature="0" />
    <path
       style="fill:none;stroke:#aa0000;stroke-width:2.5px;stroke-linecap:round;stroke-linejoin:round;stroke-opacity:1"
       d="m 215,470 5,-5 -10,-10 5,-5 -5,-5 15,-5 5,5 10,0 0,-5 15,-5 -10,-15 20,-10 10,5 -5,10 10,5 -5,5"
       id="path2729"
       inkscape:connector-curvature="0" />
    <path
       style="fill:none;stroke:#aa0000;stroke-width:2.5px;stroke-linecap:round;stroke-linejoin:round;stroke-opacity:1"
       d="m 1215,445 15,5 15,-5 20,20 15,0 5,5 5,-10 5,-5 -10,-15 0,-5"
       id="path2731"
       inkscape:connector-curvature="0" />
    <path
       style="fill:none;stroke:#aa0000;stroke-width:2.5px;stroke-linecap:round;stroke-linejoin:round;stroke-opacity:1"
       d="m 660,475 5,-5 15,-5 10,10 10,-5 30,10 20,-20 20,-10 35,10 15,-10 25,5 5,-20 0,-5 20,-10 25,0 10,10 30,15 15,0 20,-5 10,10"
       id="path2733"
       inkscape:connector-curvature="0" />
    <path
       sodipodi:nodetypes="cccccccccccccccccc"
       style="fill:none;stroke:#aa0000;stroke-width:2.5;stroke-linecap:round;stroke-linejoin:round;stroke-miterlimit:4;stroke-opacity:1;stroke-dasharray:none;display:inline"
       d="m 725,420 20,25 25,-20 10,-5 10,-25 -15,-5 -5,-5 5,-15 -5,-10 -20,10 -10,-5 -10,0 -15,25 -0.01,8.00843 -15.24,12.24157 16.6212,7.18628 6.2761,-2.17919 z"
       id="path2735-4-7"
       inkscape:connector-curvature="0" />
  </g>
  <g
     id="layer3"
     inkscape:groupmode="layer"
     inkscape:label="frontieres"
     transform="translate(-108.75,-33.179932)"
     style="display:inline"
     sodipodi:insensitive="true">
    <path
       style="fill:none;stroke:#00aa00;stroke-width:2.5px;stroke-linecap:round;stroke-linejoin:round;stroke-opacity:1"
       d="m 110,250 65,-25 95,-65 40,-30 70,-25 20,-5 5,15 5,10 -10,10 5,15 5,10 15,15 30,0 0,-15 -5,-10 20,-5 5,5 5,0 -5,-5 5,-5 15,10 5,0 30,10 20,10 0,25 5,5 15,-5 10,-5 5,5 -5,5 20,0 15,-15 15,-10 15,0 20,-15 10,-5 30,-40 -10,-10 45,-5 0,15 20,0 10,-15 -20,-35 35,-20 20,-5 5,10 -5,10 5,15 10,-5 25,5 10,0 0,-10 25,-30 20,0 15,10 -5,15 0,15 -20,-5 5,10 35,0 15,10 25,-25 5,-30 5,0 5,15 10,0 10,20 -10,20 20,25 0,20 10,5 15,-5 15,10 -5,15 5,5 30,0 5,-10 25,10 15,-15 10,-5 15,5 10,10 0,5 0,20 35,15 35,5 5,5 0,15 20,-10 10,10 -15,20 5,5 0,5 -10,5 0,15 -10,0 -5,15 10,5 -10,25 -10,10 15,5 -15,25 -10,-5 0,10 -5,10 -10,5 0,20 15,15 5,5 0,15 -5,10 10,-5 0,0 10,0 10,-15 15,15 10,-5 5,5 10,-5 10,10 15,-5 20,0 10,5 0,15 5,0 20,0 10,15 15,25 5,5 20,0 5,10 -10,15 -20,20 0,10 15,30 35,0 15,5 -5,5 0,5 10,5 5,10 -15,30 10,15 5,0 10,5 0,10 -10,5 0,5 -5,0 -15,-10 -5,0 -10,20 5,5 -5,5 -25,10 -5,5 -5,0 5,35 -15,5 -5,10 5,0 0,10 -5,5 -5,-5 0,-15 -15,-5 0,10 -15,-5 -5,-10 -20,5 0,20 -25,15 -5,20 -10,10 5,10 -5,10 -10,10 10,10 0,5 -15,5 -10,5 -5,25 -5,10 15,10 0,10 -10,0 -10,20 10,20 10,-5 20,25 0,20 10,-5 10,10 -15,10 20,15 0,10 -10,15 0,5 -10,5 0,5 10,0 0,10 -10,10 -10,5 -15,-10 -5,0 0,15 -20,0 -15,-10 -10,5 -5,10 -5,15 -15,-10 -15,0 5,10 -15,0 -10,5 -10,-10 10,-5 -10,-15 5,-10 -10,0 -5,-20 -25,-15 -5,5 -10,5 -5,-10 15,-10 -25,-25 -10,5 -25,-5 0,-10 -15,0 -5,-15 -10,-10 -10,0 -20,-10 -5,-10 -10,0 -5,0 -5,5 -25,0 -5,-5 5,-10 0,-15 -5,0 -5,-15 5,0 10,-20 -15,-25 -20,0 0,-20 10,-5 0,-10 10,-15 -10,-5 0,-5 10,0 0,-20 10,0 0,-15 10,-10 -10,-10 -15,0 -5,-5 -5,5 -5,5 -10,5 -5,15 -15,10 -10,15 10,10 -5,20 5,10 -15,0 -25,5 -10,5 0,5 -20,10 -10,0 -10,10 -5,0 -30,-10 -15,-10 -30,5 -15,0 0,-5 -10,0 -5,-5 5,-10 -10,-10 10,-20 10,0 15,-5 0,-10 -10,-30 -15,0 0,5 -10,-5 5,-15 5,-20 0,-5 -5,-5 20,-15 5,-10 -5,-10 -10,0 0,-10 -5,0 0,20 -10,0 -5,-25 -5,-5 -5,0 -5,-10 -15,-15 -15,5 -10,0 -20,10 -5,0 0,-5 -25,-10 0,5 -5,0 0,-5 -25,5 0,20 -10,5 -15,-20 0,-25 10,-5 -10,-25 0,-15 -20,-20 -5,5 -10,-5 -20,15 -5,-15 10,-10 0,-5 -20,-5 -5,15 -25,10 -30,-20 -5,-5 -5,-10 0,-25 -5,-15 0,-5 -5,-5 5,-5 -5,-5 0,-5 10,-5 -5,-10 0,-5 -5,-5 -5,0 0,0 -10,-10 0,0 0,-5 -15,-30 -5,5 -10,-5 -5,10 -10,-5 -15,5 -5,0 -15,10 -5,0 -5,5 5,5 -10,5 0,10 -5,0 0,5 -5,0 -5,-5 -5,5 -5,-5 -5,-10 -5,5 -10,-5 -5,-15 -10,-10 0,-5 -10,-10 0,-10 -15,0 -5,-5 -5,5 -5,0 -5,-20 -10,0 0,-5 5,-5 0,-30 -5,5 0,-5 15,-15 -10,-20 0,-5 -10,-5 -5,-35 -5,-20"
       id="path2738"
       inkscape:connector-curvature="0" />
    <path
       style="fill:none;stroke:#00aa00;stroke-width:2.5px;stroke-linecap:round;stroke-linejoin:round;stroke-opacity:1"
       d="m 940,70 0,-10 15,0 0,5 -5,5 -10,0"
       id="path2740"
       inkscape:connector-curvature="0" />
  </g>
</svg>
